<?xml version="1.0" encoding="utf-8"?>
<!-- Generator: Adobe Illustrator 24.0.0, SVG Export Plug-In . SVG Version: 6.00 Build 0)  -->
<svg version="1.1" id="Layer_1" xmlns="http://www.w3.org/2000/svg" xmlns:xlink="http://www.w3.org/1999/xlink" x="0px" y="0px"
	 viewBox="0 0 300 300" style="enable-background:new 0 0 300 300;" xml:space="preserve">
<style type="text/css">
	.st0{fill:#EC1C24;}
	.st1{fill:#00A551;}
	.st2{fill:#2E3191;}
	.st3{fill:#00ADEE;}
</style>
<g>
	<g>
		<g>
			<path d="M87.1,169.43v-11.8h4.43c0.9,0,1.62,0.12,2.17,0.36s0.97,0.61,1.28,1.1c0.31,0.5,0.46,1.02,0.46,1.56
				c0,0.5-0.14,0.98-0.41,1.42c-0.27,0.45-0.69,0.8-1.24,1.08c0.71,0.21,1.26,0.57,1.65,1.07s0.58,1.1,0.58,1.79
				c0,0.55-0.12,1.07-0.35,1.54c-0.23,0.47-0.52,0.84-0.87,1.1c-0.34,0.26-0.77,0.45-1.29,0.58s-1.15,0.2-1.9,0.2H87.1z
				 M88.67,162.59h2.55c0.69,0,1.19-0.05,1.49-0.14c0.4-0.12,0.7-0.31,0.9-0.59c0.2-0.27,0.3-0.62,0.3-1.03
				c0-0.39-0.09-0.74-0.28-1.03s-0.46-0.5-0.8-0.61c-0.35-0.11-0.95-0.17-1.79-0.17h-2.36V162.59z M88.67,168.04h2.94
				c0.5,0,0.86-0.02,1.06-0.06c0.36-0.06,0.66-0.17,0.9-0.32c0.24-0.15,0.44-0.37,0.6-0.66c0.16-0.29,0.23-0.62,0.23-0.99
				c0-0.44-0.11-0.82-0.34-1.15c-0.23-0.32-0.54-0.55-0.94-0.68c-0.4-0.13-0.98-0.2-1.73-0.2h-2.73V168.04z"/>
			<path d="M103.46,169.43l4.53-11.8h1.68l4.83,11.8h-1.78l-1.38-3.57h-4.93l-1.3,3.57H103.46z M106.87,164.59h4l-1.23-3.27
				c-0.38-0.99-0.65-1.81-0.84-2.45c-0.15,0.76-0.36,1.51-0.64,2.25L106.87,164.59z"/>
			<path d="M122.33,169.43v-11.8h1.6l6.2,9.26v-9.26h1.5v11.8h-1.6l-6.2-9.27v9.27H122.33z"/>
			<path d="M146.37,164.8v-1.38l5-0.01v4.38c-0.77,0.61-1.56,1.07-2.37,1.38c-0.82,0.31-1.65,0.46-2.51,0.46
				c-1.16,0-2.21-0.25-3.16-0.74c-0.95-0.5-1.66-1.21-2.15-2.15s-0.72-1.99-0.72-3.15c0-1.15,0.24-2.22,0.72-3.22
				c0.48-1,1.17-1.73,2.07-2.22s1.94-0.72,3.12-0.72c0.85,0,1.62,0.14,2.31,0.41c0.69,0.28,1.23,0.66,1.62,1.16s0.69,1.14,0.89,1.93
				l-1.41,0.39c-0.18-0.6-0.4-1.07-0.66-1.42c-0.26-0.34-0.64-0.62-1.13-0.83c-0.49-0.21-1.03-0.31-1.63-0.31
				c-0.71,0-1.33,0.11-1.85,0.33c-0.52,0.22-0.94,0.5-1.26,0.86c-0.32,0.35-0.57,0.74-0.74,1.17c-0.3,0.73-0.45,1.52-0.45,2.37
				c0,1.05,0.18,1.93,0.54,2.64c0.36,0.71,0.89,1.23,1.58,1.58c0.69,0.34,1.43,0.52,2.21,0.52c0.68,0,1.34-0.13,1.98-0.39
				c0.64-0.26,1.13-0.54,1.46-0.83v-2.2H146.37z"/>
			<path d="M160.2,169.43v-11.8h1.56v10.41h5.81v1.39H160.2z"/>
			<path d="M174.73,169.43l4.53-11.8h1.68l4.83,11.8h-1.78l-1.38-3.57h-4.93l-1.3,3.57H174.73z M178.13,164.59h4l-1.23-3.27
				c-0.38-0.99-0.65-1.81-0.84-2.45c-0.15,0.76-0.36,1.51-0.64,2.25L178.13,164.59z"/>
			<path d="M193.61,169.43v-11.8h4.06c0.92,0,1.62,0.06,2.1,0.17c0.68,0.16,1.25,0.44,1.73,0.85c0.62,0.53,1.09,1.2,1.4,2.02
				c0.31,0.82,0.46,1.75,0.46,2.81c0,0.9-0.1,1.69-0.31,2.38c-0.21,0.69-0.48,1.27-0.8,1.72c-0.33,0.45-0.69,0.81-1.07,1.07
				s-0.86,0.46-1.41,0.59c-0.55,0.13-1.18,0.2-1.9,0.2H193.61z M195.18,168.04h2.52c0.78,0,1.39-0.07,1.83-0.22
				c0.44-0.14,0.8-0.35,1.06-0.61c0.37-0.37,0.66-0.87,0.87-1.49c0.21-0.63,0.31-1.38,0.31-2.27c0-1.23-0.2-2.18-0.61-2.85
				c-0.4-0.66-0.9-1.11-1.48-1.33c-0.42-0.16-1.09-0.24-2.02-0.24h-2.48V168.04z"/>
			<path d="M212.14,169.43v-11.8h8.53v1.39h-6.97v3.61h6.53v1.38h-6.53v4.02h7.24v1.39H212.14z"/>
			<path d="M229.17,165.64l1.47-0.13c0.07,0.59,0.23,1.07,0.49,1.45s0.65,0.68,1.19,0.92c0.54,0.23,1.14,0.35,1.81,0.35
				c0.6,0,1.12-0.09,1.58-0.27c0.46-0.18,0.8-0.42,1.02-0.73c0.22-0.31,0.33-0.65,0.33-1.01c0-0.37-0.11-0.69-0.32-0.97
				c-0.21-0.28-0.57-0.51-1.06-0.7c-0.32-0.12-1.02-0.32-2.1-0.58c-1.08-0.26-1.84-0.51-2.28-0.74c-0.56-0.3-0.98-0.66-1.26-1.1
				s-0.41-0.93-0.41-1.47c0-0.6,0.17-1.15,0.51-1.67c0.34-0.52,0.83-0.91,1.48-1.18c0.65-0.27,1.37-0.4,2.17-0.4
				c0.87,0,1.65,0.14,2.31,0.42s1.18,0.7,1.54,1.24s0.55,1.17,0.58,1.86l-1.5,0.11c-0.08-0.75-0.35-1.31-0.82-1.69
				c-0.46-0.38-1.15-0.57-2.06-0.57c-0.94,0-1.63,0.17-2.06,0.52c-0.43,0.35-0.65,0.76-0.65,1.25c0,0.42,0.15,0.77,0.46,1.05
				c0.3,0.27,1.09,0.55,2.35,0.84s2.14,0.54,2.61,0.75c0.69,0.32,1.19,0.72,1.52,1.2c0.33,0.49,0.49,1.04,0.49,1.68
				c0,0.63-0.18,1.22-0.54,1.77s-0.88,0.99-1.55,1.3s-1.43,0.46-2.27,0.46c-1.07,0-1.96-0.16-2.68-0.47s-1.29-0.78-1.7-1.4
				S229.19,166.43,229.17,165.64z"/>
			<path d="M247.34,169.43v-11.8h1.56v4.85h6.13v-4.85h1.56v11.8h-1.56v-5.56h-6.13v5.56H247.34z"/>
		</g>
		<g>
			<path d="M111.6,133.26l-0.47,1.05l-6.27,13.92l-1.61,3.65h-0.86l-4.49-10.06l-4.53,10.06h-0.87l-7.82-17.58l-0.47-1.05h4.34
				l0.2,0.44l4.24,9.41l2.88-6.41l1.35-3.01l0.2-0.44h0.96l0.2,0.44l1.35,3.01l2.89,6.41l4.24-9.41l0.2-0.44H111.6z"/>
			<path d="M118.36,133.23v18.66h-3.96v-18.66H118.36z"/>
			<path d="M136.27,133.23v18.66h-0.95l-2.79-2.79l-4.69-4.69l-2.71-2.71l-3.96-3.96v-2.36l0-1.78v-0.48h0.98l10.15,10.15v-10.05
				H136.27z M121.17,141.64l3.96,3.96v6.26h-3.96V141.64z"/>
			<path d="M156,142.61c0,0.46-0.03,0.92-0.1,1.37c-0.61,4.15-3.94,7.4-8.1,7.9l-0.04,0.01h-8.67v-11.9h3.96v7.95h4.45
				c2.2-0.34,3.98-2.03,4.44-4.21c0.08-0.36,0.11-0.74,0.11-1.11c0-0.36-0.04-0.72-0.11-1.07c-0.26-1.28-0.98-2.43-2.04-3.23
				c-0.65-0.49-1.39-0.82-2.17-0.98c-0.27-0.05-0.54-0.09-0.82-0.1h-7.83v-3.96l8.29,0.03c2.02,0.15,3.95,0.97,5.48,2.32
				c1.67,1.47,2.75,3.49,3.06,5.68C155.96,141.72,156,142.16,156,142.61z"/>
			<path d="M203.25,133.26l-0.47,1.05l-6.27,13.92l-1.61,3.65h-0.86l-4.49-10.06l-4.53,10.06h-0.87l-7.82-17.58l-0.47-1.05h4.34
				l0.2,0.44l4.24,9.41l2.88-6.41l1.35-3.01l0.2-0.44h0.96l0.2,0.44l1.35,3.01l2.88,6.41l4.24-9.41l0.2-0.44H203.25z"/>
			<path d="M220.1,143.44c0.49,0.85,0.74,1.82,0.74,2.8c0,0.98-0.26,1.95-0.74,2.8c-1.01,1.76-2.88,2.85-4.9,2.85h-5.6
				c-2.48,0-4.57-1.68-5.2-3.96c-0.13-0.46-0.19-0.94-0.19-1.44h3.87c0,0.67,0.43,1.23,1.03,1.44h6.09c0.93,0,1.69-0.76,1.69-1.69
				c0-0.93-0.76-1.69-1.69-1.69h-5.35c-1.58,0-3.08-0.67-4.13-1.8c-0.29-0.31-0.55-0.66-0.77-1.05c-0.49-0.85-0.74-1.82-0.74-2.8
				c0-0.98,0.26-1.95,0.74-2.8c1.01-1.76,2.88-2.85,4.91-2.85h5.7c2.48,0,4.57,1.68,5.2,3.96c0.13,0.46,0.19,0.94,0.19,1.44h-3.87
				c0-0.67-0.43-1.23-1.03-1.44h-6.19c-0.93,0-1.69,0.76-1.69,1.69c0,0.93,0.76,1.69,1.69,1.69h5.35
				C217.22,140.59,219.09,141.68,220.1,143.44z"/>
			<path d="M235.94,151.88h3.96v-12.92c0-0.24-0.19-0.43-0.43-0.43h-3.09c-0.24,0-0.43,0.19-0.43,0.43V151.88z"/>
			<path d="M259.49,133.26v3.96h-6.54v0h-3.96v0h-6.28v-3.96H259.49z M248.99,151.89v-16.92h3.96v16.92H248.99z"/>
			<path d="M235.94,133.29v3.75c0,0.1,0.08,0.18,0.18,0.18h3.58c0.1,0,0.18-0.08,0.18-0.18v-5.51l-0.57,0.25v2.51l-1.03-0.44v-1.62
				l-0.68,0.3v1.43l-1.03,0.44v-1.41L235.94,133.29z M238.28,134.7l1.03,0.44v1.49l-1.03-0.44V134.7z M236.56,135.26l1.03-0.44v1.49
				l-1.03,0.44V135.26z"/>
			<g>
				<path d="M176.49,143.28c-0.05,0.33-0.09,0.67-0.15,1c-0.37,2.02-1.32,3.72-2.81,5.12c-0.09,0.09-0.13,0.15-0.09,0.28
					c0.15,0.48-0.03,0.97-0.44,1.25c-0.42,0.29-0.94,0.28-1.34-0.04c-0.09-0.07-0.16-0.07-0.27-0.02c-2.73,1.3-5.47,1.3-8.2-0.01
					c-0.1-0.05-0.16-0.04-0.25,0.02c-0.4,0.28-0.88,0.28-1.28,0c-0.4-0.27-0.58-0.73-0.47-1.21c0.03-0.11,0-0.17-0.08-0.24
					c-1.53-1.42-2.49-3.16-2.86-5.21c-0.09-0.5-0.1-1.02-0.14-1.53c-0.01-0.11-0.04-0.16-0.14-0.2c-0.51-0.21-0.78-0.67-0.71-1.21
					c0.06-0.51,0.42-0.88,0.95-0.97c0.16-0.03,0.21-0.11,0.25-0.24c0.22-0.81,0.56-1.58,1-2.29c0.14-0.22,0.32-0.26,0.47-0.1
					c0.12,0.13,0.1,0.26,0.01,0.39c-0.39,0.64-0.69,1.31-0.91,2.03c-0.03,0.11-0.06,0.21-0.08,0.29c0.14,0.16,0.26,0.3,0.4,0.43
					c0.03,0.03,0.11,0.05,0.16,0.04c1.08-0.22,2.17-0.33,3.28-0.36c0.06,0,0.15-0.05,0.19-0.11c0.28-0.4,0.66-0.6,1.16-0.53
					c0.11,0.02,0.18-0.01,0.25-0.1c0.52-0.71,1.12-1.35,1.78-1.93c0.08-0.07,0.09-0.13,0.07-0.24c-0.05-0.22-0.06-0.45-0.1-0.73
					c-0.84-0.5-1.79-0.91-2.82-1.21c-0.17,0.3-0.42,0.51-0.75,0.59c-0.33,0.08-0.64,0.02-0.95-0.18c-0.26,0.27-0.52,0.54-0.78,0.81
					c-0.16,0.17-0.42,0.13-0.48-0.09c-0.02-0.09,0.01-0.23,0.07-0.3c0.23-0.26,0.47-0.5,0.72-0.74c0.08-0.08,0.11-0.14,0.07-0.25
					c-0.16-0.51,0.02-1.01,0.45-1.3c0.44-0.29,0.95-0.27,1.37,0.08c0.08,0.07,0.14,0.08,0.23,0.03c1.3-0.65,2.68-0.95,4.13-0.93
					c1.34,0.01,2.61,0.3,3.82,0.87c0.09,0.05,0.16,0.07,0.27-0.01c0.39-0.31,0.88-0.32,1.29-0.06c0.42,0.27,0.62,0.74,0.5,1.23
					c-0.03,0.12-0.01,0.19,0.08,0.25c0.04,0.02,0.07,0.05,0.1,0.09c0.22,0.27,0.45,0.36,0.83,0.28c0.43-0.09,0.79,0.15,1.02,0.52
					c0.24,0.39,0.26,0.79,0.02,1.19c-0.09,0.14-0.07,0.23,0,0.37c0.65,1.15,1.02,2.38,1.12,3.7c0,0.05,0.02,0.11,0.04,0.16
					C176.49,142.4,176.49,142.84,176.49,143.28z M163.63,142.09c-0.01,0.02-0.03,0.04-0.03,0.05c-1,2.06-1.38,4.24-1.2,6.52
					c0.01,0.11,0.05,0.15,0.15,0.17c0.25,0.05,0.46,0.18,0.61,0.38c0.08,0.1,0.14,0.11,0.25,0.06c1.24-0.47,2.42-1.07,3.53-1.81
					c1.45-0.97,2.72-2.14,3.81-3.5c0.06-0.07,0.05-0.12,0.02-0.21c-0.07-0.22-0.13-0.44-0.14-0.67c-0.01-0.14-0.03-0.22-0.16-0.28
					c-1.37-0.67-2.81-1.15-4.3-1.43c-0.35-0.07-0.71-0.11-1.06-0.17C164.82,141.94,164.38,142.2,163.63,142.09z M171.84,144.33
					c-0.09-0.01-0.15-0.01-0.21-0.01c-0.06-0.01-0.13-0.01-0.18-0.04c-0.13-0.07-0.2-0.03-0.29,0.08c-1.96,2.41-4.37,4.2-7.27,5.33
					c-0.29,0.12-0.53,0.23-0.5,0.59c0,0.01,0,0.02,0.01,0.05c0.08,0.04,0.17,0.09,0.26,0.13c1,0.47,2.05,0.73,3.16,0.8
					c1.49,0.09,2.91-0.21,4.25-0.85c0.13-0.06,0.19-0.12,0.17-0.28c-0.06-0.46,0.13-0.82,0.5-1.08c0.13-0.09,0.29-0.14,0.46-0.22
					c0.02-0.46,0.04-0.94,0.05-1.42c0.01-0.22,0.1-0.33,0.29-0.33c0.18,0,0.28,0.11,0.27,0.33c-0.01,0.41,0,0.82-0.05,1.22
					c-0.03,0.25,0.05,0.37,0.26,0.44c0.01,0,0.01,0,0.03,0c0.87-0.78,1.56-1.71,2.05-2.78c0.02-0.05-0.02-0.15-0.06-0.2
					c-0.71-0.72-1.48-1.36-2.31-1.95c-0.15-0.11-0.26-0.13-0.35,0.01c0.1,0.5,0.19,0.99,0.28,1.47c0.03,0.15-0.02,0.26-0.16,0.32
					c-0.2,0.09-0.37-0.02-0.41-0.26C172.01,145.23,171.92,144.79,171.84,144.33z M161.52,149.05c0.28-0.07,0.33-0.22,0.32-0.46
					c-0.02-0.79-0.05-1.58,0.02-2.36c0.13-1.5,0.55-2.94,1.21-4.3c0.05-0.1,0.05-0.17-0.02-0.27c-0.09-0.13-0.15-0.27-0.19-0.42
					c-0.03-0.13-0.07-0.17-0.21-0.16c-0.51,0.05-1.02,0.08-1.53,0.14c-0.53,0.06-1.05,0.14-1.59,0.22
					c-0.02,0.59-0.33,0.93-0.88,1.12C158.81,145.09,159.72,147.27,161.52,149.05z M171.16,135.69c-0.93,0.28-1.81,0.66-2.64,1.15
					c-0.05,0.03-0.08,0.12-0.09,0.19c-0.03,0.18-0.02,0.37-0.06,0.55c-0.03,0.12-0.02,0.19,0.07,0.27c1.23,1.09,2.21,2.36,2.95,3.82
					c0.12,0.24,0.22,0.45,0.55,0.39c0.08-0.01,0.14,0.01,0.19-0.08c0.68-1.17,1.23-2.4,1.63-3.69c0.03-0.1,0.01-0.14-0.07-0.2
					c-0.32-0.24-0.5-0.57-0.46-0.97c0.02-0.21,0.09-0.42,0.15-0.66c-0.13-0.12-0.3-0.28-0.46-0.43
					C172.24,136.45,171.64,136.34,171.16,135.69z M174.77,138.24c-0.08,0.02-0.14,0.04-0.19,0.04c-0.18,0-0.26,0.09-0.3,0.26
					c-0.07,0.26-0.16,0.51-0.25,0.76c-0.37,1.02-0.83,1.99-1.37,2.93c-0.03,0.06-0.05,0.17-0.02,0.21c0.26,0.33,0.31,0.7,0.24,1.05
					c0.86,0.71,1.7,1.4,2.55,2.1C176.27,143.05,176.06,140.61,174.77,138.24z M164.79,140.17c0.08,0.12,0.16,0.22,0.2,0.32
					c0.04,0.12,0.12,0.14,0.23,0.15c1.38,0.17,2.72,0.5,4.02,1.01c0.52,0.2,1.03,0.45,1.55,0.67c0.06,0.03,0.14,0,0.21,0.01
					c0-0.07,0.01-0.15-0.01-0.21c-0.04-0.12-0.11-0.22-0.17-0.34c-0.7-1.34-1.62-2.51-2.75-3.51c-0.07-0.06-0.12-0.12-0.24-0.06
					c-0.35,0.19-0.72,0.18-1.08,0c-0.05-0.02-0.14-0.02-0.17,0.02C165.91,138.81,165.32,139.46,164.79,140.17z M171.06,134.8
					c-0.08-0.04-0.17-0.08-0.27-0.13c-1.56-0.69-3.18-0.88-4.85-0.63c-0.84,0.13-1.64,0.38-2.4,0.76c-0.05,0.03-0.11,0.11-0.11,0.16
					c0,0.06,0.06,0.14,0.12,0.16c1.03,0.3,2,0.73,2.92,1.28c0.5-0.42,1.1-0.46,1.66,0c0.82-0.49,1.69-0.89,2.6-1.17
					C170.96,135.16,171.1,135.07,171.06,134.8z M174.35,136.59c-0.33,0-0.57,0.25-0.57,0.57c0,0.33,0.25,0.57,0.59,0.57
					c0.31-0.01,0.55-0.26,0.55-0.57C174.92,136.83,174.67,136.58,174.35,136.59z M158.95,141.44c0-0.34-0.24-0.59-0.57-0.58
					c-0.3,0-0.56,0.26-0.56,0.56c-0.01,0.31,0.25,0.58,0.56,0.59C158.7,142.01,158.95,141.76,158.95,141.44z M172.15,135.7
					c0.33,0.01,0.58-0.22,0.59-0.54c0.01-0.32-0.23-0.59-0.54-0.59c-0.31-0.01-0.58,0.24-0.59,0.55
					C171.59,135.44,171.83,135.69,172.15,135.7z M171.19,143.19c0,0.3,0.26,0.57,0.56,0.57c0.33,0,0.58-0.25,0.57-0.59
					c0-0.32-0.25-0.57-0.57-0.57C171.44,142.6,171.19,142.87,171.19,143.19z M162.86,135.14c0-0.33-0.24-0.57-0.56-0.57
					c-0.33,0-0.58,0.26-0.57,0.59c0.01,0.31,0.26,0.55,0.57,0.56C162.61,135.71,162.86,135.45,162.86,135.14z M172.36,150.57
					c0.31,0,0.57-0.26,0.56-0.58c0-0.33-0.24-0.56-0.57-0.56c-0.33,0-0.56,0.24-0.56,0.57
					C171.79,150.32,172.04,150.57,172.36,150.57z M163.96,141.55c0.33,0,0.59-0.25,0.58-0.58c0-0.3-0.26-0.56-0.57-0.56
					c-0.32,0-0.58,0.25-0.58,0.56C163.39,141.3,163.64,141.55,163.96,141.55z M162.86,149.95c0-0.31-0.27-0.58-0.57-0.58
					c-0.31,0-0.57,0.27-0.57,0.58c0,0.31,0.27,0.58,0.57,0.58C162.61,150.52,162.86,150.26,162.86,149.95z M167.86,137.2
					c0-0.33-0.24-0.57-0.56-0.57c-0.31,0-0.57,0.26-0.57,0.57c0,0.31,0.26,0.57,0.57,0.57C167.63,137.77,167.86,137.53,167.86,137.2
					z"/>
			</g>
		</g>
	</g>
	<g>
		<polygon class="st0" points="40.51,133.28 55.78,131.68 55.78,148.41 40.51,148.54 		"/>
		<polygon class="st1" points="40.51,151.46 55.78,151.59 55.78,168.32 40.51,166.72 		"/>
		<polygon class="st2" points="58.69,151.77 73.96,151.46 73.96,166.72 58.69,170.31 		"/>
		<path class="st3" d="M71.63,132.94v5.08c0,0.13-0.12,0.22-0.24,0.19l-3.85-1.03c-0.08-0.02-0.14-0.1-0.14-0.19v-5.05l-2.21-0.48
			v5.61c0,0.08-0.04,0.15-0.11,0.18l-3.77,1.68c-0.13,0.06-0.27-0.04-0.27-0.18v-8.3l-2.33-0.76v18.54l15.27,0.31v-15.27
			L71.63,132.94z M65.06,145.49l-3.77,1.41c-0.13,0.05-0.26-0.05-0.26-0.18v-4.69c0-0.08,0.05-0.15,0.12-0.18l3.77-1.59
			c0.13-0.05,0.27,0.04,0.27,0.18v4.86C65.18,145.39,65.13,145.46,65.06,145.49z M71.37,146.99l-3.85-1.34
			c-0.08-0.03-0.13-0.1-0.13-0.18v-5.03c0-0.13,0.12-0.22,0.25-0.19l3.85,1.14c0.08,0.02,0.14,0.1,0.14,0.19v5.23
			C71.63,146.94,71.49,147.03,71.37,146.99z"/>
	</g>
</g>
</svg>
